<svg xmlns="http://www.w3.org/2000/svg" width="206.213" height="167.809" viewBox="0 0 206.213 167.809">
  <g id="disco-ball-of-small-mirrors-with-musical-note-symbol-svgrepo-com" transform="translate(-19.948 -78.3)">
    <g id="Group_5" data-name="Group 5">
      <path id="Path_1" data-name="Path 1" d="M85.73,160.837c10.826.111,22.186.13,33.622,0-.173-11.948-.7-23.4-1.414-33.944-9.568-.41-19.9-.429-30.8.131C86.424,137.53,85.9,148.941,85.73,160.837Z"/>
      <path id="Path_2" data-name="Path 2" d="M55.479,190.445c-.448-8.256-.658-16.288-.686-24.045-7.328-.2-13.976-.41-19.663-.616-.028,6.7.191,13.7.711,20.9Q45.807,188.938,55.479,190.445Z"/>
      <path id="Path_3" data-name="Path 3" d="M60.918,160.417c5.9.141,12.182.262,18.7.354.168-11.732.675-22.971,1.358-33.369-6.137.434-12.426,1.046-18.859,1.9C61.464,138.818,61.014,149.291,60.918,160.417Z"/>
      <path id="Path_4" data-name="Path 4" d="M61.66,191.332c6.284.84,12.445,1.461,18.447,1.9-.416-8.9-.574-17.717-.542-26.346-6.5-.089-12.76-.21-18.647-.341C60.946,174.54,61.173,182.814,61.66,191.332Z"/>
      <path id="Path_5" data-name="Path 5" d="M118.837,193.763c.438-9.05.6-18.029.562-26.8-5.591.064-11.177.1-16.682.1-5.783,0-11.479-.033-17.033-.089-.033,8.728.119,17.655.558,26.658A324.2,324.2,0,0,0,118.837,193.763Z"/>
      <path id="Path_6" data-name="Path 6" d="M150.011,104.1c.7,5.93,1.362,12.573,1.923,19.833,7.233,1.048,13.479,2.206,18.621,3.284-1.1-8.387-2.375-15.267-3.4-20.192C162.3,106.052,156.549,105.035,150.011,104.1Z"/>
      <path id="Path_7" data-name="Path 7" d="M55.929,130.188q-9.325,1.436-18.958,3.562c-.861,7.747-1.526,16.465-1.76,25.911,5.668.205,12.277.415,19.595.606C54.9,149.547,55.318,139.448,55.929,130.188Z"/>
      <path id="Path_8" data-name="Path 8" d="M62.066,197.543c.462,6.511,1.069,13.129,1.867,19.821,6.2.784,12.253,1.354,18.167,1.745-.716-6.553-1.253-13.151-1.649-19.732C74.453,198.953,68.327,198.355,62.066,197.543Z"/>
      <path id="Path_9" data-name="Path 9" d="M85.789,244.079c-1.176-6.165-2.147-12.446-2.954-18.789-5.9-.374-11.934-.9-18.118-1.647q.935,6.846,2.137,13.763A83.259,83.259,0,0,0,85.789,244.079Z"/>
      <path id="Path_10" data-name="Path 10" d="M176.907,128.634c2.067.485,3.808.924,5.231,1.3a84.6,84.6,0,0,0-6.991-13.445C175.749,120.122,176.352,124.184,176.907,128.634Z"/>
      <path id="Path_11" data-name="Path 11" d="M65.364,97c6.289-.749,12.458-1.3,18.451-1.668.679-6.088,1.349-11.355,1.937-15.707a83.6,83.6,0,0,0-18.827,6.622C66.444,89.288,65.9,92.9,65.364,97Z"/>
      <path id="Path_12" data-name="Path 12" d="M58.31,104.108c-5.641.822-11.36,1.811-17.168,3.006-1.027,4.931-2.289,11.8-3.393,20.175,6.305-1.344,12.512-2.44,18.631-3.353C56.942,116.677,57.611,110.038,58.31,104.108Z"/>
      <path id="Path_13" data-name="Path 13" d="M119.243,78.956c.607,4.445,1.3,9.892,2.012,16.239,7.785.406,15.058,1.048,21.708,1.825-.541-4.1-1.082-7.717-1.568-10.762A83.52,83.52,0,0,0,119.243,78.956Z"/>
      <path id="Path_14" data-name="Path 14" d="M176.711,204.67a83.82,83.82,0,0,0,6.721-14.254c-1.34.369-3.085.821-5.232,1.345Q177.624,198.131,176.711,204.67Z"/>
      <path id="Path_15" data-name="Path 15" d="M36.383,193.068c.644,6.59,1.557,13.311,2.805,20.124,6.251,1.335,12.4,2.408,18.46,3.3-.763-6.7-1.342-13.306-1.783-19.812Q46.283,195.245,36.383,193.068Z"/>
      <path id="Path_16" data-name="Path 16" d="M30.108,191.64q-2.639-.645-5.29-1.335a83.775,83.775,0,0,0,6.791,14.421C30.986,200.311,30.489,195.938,30.108,191.64Z"/>
      <path id="Path_17" data-name="Path 17" d="M58.438,222.779c-4.917-.7-9.878-1.484-14.93-2.455a84.927,84.927,0,0,0,16.484,13.287C59.413,229.989,58.907,226.376,58.438,222.779Z"/>
      <path id="Path_18" data-name="Path 18" d="M33.182,116.437a83.812,83.812,0,0,0-7.068,13.607c1.767-.452,3.531-.9,5.286-1.316C31.957,124.228,32.568,120.112,33.182,116.437Z"/>
      <path id="Path_19" data-name="Path 19" d="M87.581,120.873c10.557-.516,20.589-.5,29.916-.114-.534-7.082-1.146-13.707-1.767-19.686-8.289-.3-17.119-.306-26.38.1C88.723,107.156,88.116,113.791,87.581,120.873Z"/>
      <path id="Path_38" data-name="Path 38" d="M87.581,117.38c10.043-.426,19.587-.414,28.46-.094-.508-5.846-1.09-11.315-1.681-16.251-7.886-.248-16.286-.253-25.1.083C88.667,106.057,88.09,111.534,87.581,117.38Z" transform="translate(1.459 -22.556)"/>
      <path id="Path_20" data-name="Path 20" d="M121.91,101.355c.616,6.006,1.218,12.631,1.743,19.709,7.979.479,15.371,1.195,22.082,2.04-.588-7.3-1.278-13.936-1.988-19.819C137.1,102.468,129.785,101.789,121.91,101.355Z"/>
      <path id="Path_21" data-name="Path 21" d="M149.24,97.822c4.224.579,8.153,1.195,11.742,1.823a84.709,84.709,0,0,0-12.829-9.659Q148.685,93.564,149.24,97.822Z"/>
      <path id="Path_22" data-name="Path 22" d="M62.582,123.062c6.427-.821,12.7-1.41,18.829-1.825.525-7.089,1.127-13.712,1.743-19.723q-9.059.57-18.589,1.743C63.868,109.135,63.175,115.774,62.582,123.062Z"/>
      <path id="Path_23" data-name="Path 23" d="M19.967,165.187a84.282,84.282,0,0,0,2.763,18.406,3.085,3.085,0,0,1,.749.052c2.056.56,4.09,1.068,6.128,1.577-.441-6.768-.628-13.348-.6-19.662C25.409,165.419,22.352,165.294,19.967,165.187Z"/>
      <path id="Path_24" data-name="Path 24" d="M30.652,135.206c-2.336.578-4.688,1.171-7.05,1.815a84.021,84.021,0,0,0-3.654,22.023c2.38.107,5.481.243,9.145.383C29.315,150.691,29.9,142.546,30.652,135.206Z"/>
      <path id="Path_25" data-name="Path 25" d="M60.165,89.967a84.32,84.32,0,0,0-12.9,9.714c3.981-.716,7.913-1.333,11.814-1.878Q59.629,93.554,60.165,89.967Z"/>
      <path id="Path_27" data-name="Path 27" d="M217.852,219.479c10.864-28.96,8.746-51.259,6.486-62.03a17.562,17.562,0,0,0-16.717-13.4l-49.546-.023a14.62,14.62,0,0,0-10.431,4.336,15.783,15.783,0,0,0-4.532,11.327c.089,12.135-2.6,28.324-4.919,39.974a24.466,24.466,0,0,0-6.123-.774c-11.633,0-21.067,8.022-21.067,17.931s9.439,17.931,21.067,17.931a22.184,22.184,0,0,0,17.2-7.7c-.3,2.184-.589,4.363-.943,6.557a84.308,84.308,0,0,0,16.414-13.222c-3.789.71-8.088,1.419-12.713,2.091a15.4,15.4,0,0,0,.938-3.439l.158.042c.346-1.4,8.14-33.043,8.686-56.313l44.491.01c1.424,7.7,2.371,21.259-2.39,39.017a24.444,24.444,0,0,0-7.08-1.06c-11.635,0-21.062,8.032-21.062,17.932s9.428,17.931,21.062,17.931C208.144,236.588,217.347,228.995,217.852,219.479Z"/>
      <path id="Path_28" data-name="Path 28" d="M104.145,246.109c2.9,0,5.755-.149,8.578-.43.775-3.868,1.458-7.789,2.089-11.742a25.927,25.927,0,0,1-7.078-8.041c-1.361.019-2.665.079-4.051.079-4.732,0-9.649-.14-14.643-.359.868,6.646,1.949,13.208,3.234,19.64A84.548,84.548,0,0,0,104.145,246.109Z"/>
      <path id="Path_29" data-name="Path 29" d="M184.183,136.867c-.919-.28-3.146-.915-6.534-1.755.062.569.112,1.167.168,1.745Z"/>
      <path id="Path_30" data-name="Path 30" d="M185.564,183.584a83.827,83.827,0,0,0,2.39-13.521l-8.719-.005c-.056,4.971-.2,10.034-.536,15.262,3.762-.952,5.866-1.6,5.987-1.644A3.209,3.209,0,0,1,185.564,183.584Z"/>
      <path id="Path_31" data-name="Path 31" d="M160.063,136.988l11.616.005c-.112-1.125-.22-2.264-.341-3.351-5.059-1.106-11.462-2.329-18.943-3.454.173,2.628.321,5.344.462,8.1A21.958,21.958,0,0,1,160.063,136.988Z"/>
      <path id="Path_32" data-name="Path 32" d="M173.122,169.928h-2.511c-.42,5.834-1.158,11.883-2.03,17.707,1.372-.284,2.674-.56,3.892-.831C172.889,181.008,173.057,175.4,173.122,169.928Z"/>
      <path id="Path_33" data-name="Path 33" d="M163.6,214.349c1.942-.363,3.818-.728,5.517-1.087,1.246-6.786,2.166-13.5,2.81-20.073-1.362.289-2.818.593-4.35.9C166.215,202.173,164.707,209.393,163.6,214.349Z"/>
      <path id="Path_34" data-name="Path 34" d="M137.932,159.731A22.886,22.886,0,0,1,144.55,143.3a22.152,22.152,0,0,1,2.329-1.923c-.182-4.149-.406-8.2-.672-12.051-6.688-.868-14.1-1.614-22.113-2.109.693,10.444,1.2,21.749,1.37,33.538,4.177-.066,8.3-.22,12.436-.337C137.9,160.193,137.932,159.946,137.932,159.731Z"/>
      <path id="Path_35" data-name="Path 35" d="M134.049,191.845h.336a230.314,230.314,0,0,0,3.3-25.3c-4.061.107-8.081.252-12.177.322.033,8.615-.124,17.44-.541,26.327A31.3,31.3,0,0,1,134.049,191.845Z"/>
      <path id="Path_36" data-name="Path 36" d="M120.228,238.674c-.346,2.03-.679,4.069-1.066,6.077a83.74,83.74,0,0,0,11.729-3A30.51,30.51,0,0,1,120.228,238.674Z"/>
      <path id="Path_37" data-name="Path 37" d="M106.067,219.782a22.363,22.363,0,0,1-.254-3.169,23.493,23.493,0,0,1,7.1-16.591c-3.052.089-6.049.214-9.232.214-5.507,0-11.231-.158-17.086-.466.411,6.575.971,13.161,1.706,19.7C94.444,219.763,100.327,219.824,106.067,219.782Z"/>
    </g>
  </g>
</svg>
