<svg xmlns="http://www.w3.org/2000/svg" width="863" height="242.936" viewBox="0 0 863 242.936">
  <g id="Group_48" data-name="Group 48" transform="translate(-618.492 -376.532)">
    <g id="new_logo" data-name="new logo" transform="translate(618.492 376.532)">
      <g id="Group_47" data-name="Group 47" transform="translate(0)">
        <g id="Group_42" data-name="Group 42" transform="translate(239.016 242.936) rotate(180)">
          <g id="Group_44" data-name="Group 44" transform="translate(0 0)">
            <g id="Group_40" data-name="Group 40" transform="translate(56.235 0)">
              <path id="Path_24" data-name="Path 24" d="M121.854,242.936C54.556,242.936,0,188.553,0,121.468S54.556,0,121.854,0a60.734,60.734,0,1,1,0,121.468,60.734,60.734,0,1,0,0,121.468" transform="translate(182.781 242.936) rotate(180)" fill="#ec5873"/>
            </g>
            <path id="Path_23" data-name="Path 23" d="M121.521,242.836A121.418,121.418,0,1,1,121.521,0a60.709,60.709,0,1,1,0,121.418,60.709,60.709,0,1,0,0,121.418" transform="translate(0 0)" fill="#fff"/>
          </g>
        </g>
        <g id="Component_4_1" data-name="Component 4 – 1" transform="translate(119.508 222.627) rotate(180)">
          <g id="Group_28" data-name="Group 28" transform="translate(40 38.461) rotate(180)">
            <path id="Subtraction_2" data-name="Subtraction 2" d="M20,38.461h0c-.024-.017-2.454-1.774-5.531-4.45A67.83,67.83,0,0,1,4.6,23.625C1.8,19.807,0,14.8,0,10.865A10.871,10.871,0,0,1,10.769,0h.1a10.8,10.8,0,0,1,5.271,1.382A11.132,11.132,0,0,1,20,5a11.137,11.137,0,0,1,3.865-3.618A10.8,10.8,0,0,1,29.135,0h.1A10.871,10.871,0,0,1,40,10.865c0,3.934-1.8,8.942-4.6,12.76A67.813,67.813,0,0,1,25.531,34.01c-3.076,2.675-5.507,4.433-5.531,4.45ZM23.836,12.5a.785.785,0,0,0-.785.785v11.9a.785.785,0,0,0,1.569,0v-11.9A.787.787,0,0,0,23.836,12.5Zm-7.672,1.177a.785.785,0,0,0-.784.785v9.153a.784.784,0,1,0,1.569,0V14.458A.786.786,0,0,0,16.164,13.674Zm10.2,4.315a.785.785,0,0,0-.785.785v4.359a.785.785,0,1,0,1.569,0V18.774A.786.786,0,0,0,26.363,17.989Zm-5.056-3.2a.786.786,0,0,0-.785.785v7.562a.785.785,0,0,0,1.569,0V15.57A.785.785,0,0,0,21.308,14.786Zm-2.615,1.634a.786.786,0,0,0-.785.785V22.26a.785.785,0,1,0,1.569,0V17.2A.785.785,0,0,0,18.692,16.419Zm-5.056,0a.785.785,0,0,0-.785.785v3.138a.785.785,0,1,0,1.569,0V17.2A.785.785,0,0,0,13.637,16.419Z" transform="translate(0 0)" fill="#ec5873"/>
          </g>
        </g>
        <g id="Component_4_2" data-name="Component 4 – 2" transform="translate(159.507 72.691) rotate(180)">
          <g id="Group_28-2" data-name="Group 28" transform="translate(40 38.461) rotate(180)">
            <path id="Subtraction_2-2" data-name="Subtraction 2" d="M20,38.461h0c-.024-.017-2.454-1.774-5.531-4.45A67.825,67.825,0,0,1,4.6,23.625C1.8,19.807,0,14.8,0,10.865A10.871,10.871,0,0,1,10.769,0h.1a10.8,10.8,0,0,1,5.271,1.382A11.13,11.13,0,0,1,20,5a11.137,11.137,0,0,1,3.865-3.618A10.8,10.8,0,0,1,29.134,0h.1A10.871,10.871,0,0,1,40,10.865c0,3.934-1.8,8.942-4.6,12.76A67.819,67.819,0,0,1,25.531,34.01c-3.076,2.675-5.507,4.433-5.531,4.45ZM23.836,12.5a.785.785,0,0,0-.785.785v11.9a.785.785,0,0,0,1.569,0v-11.9A.786.786,0,0,0,23.836,12.5Zm-7.671,1.177a.785.785,0,0,0-.784.785v9.153a.784.784,0,1,0,1.569,0V14.458A.786.786,0,0,0,16.164,13.674Zm10.2,4.315a.785.785,0,0,0-.785.785v4.359a.785.785,0,1,0,1.569,0V18.774A.785.785,0,0,0,26.363,17.989Zm-5.056-3.2a.785.785,0,0,0-.785.785v7.562a.785.785,0,0,0,1.569,0V15.57A.785.785,0,0,0,21.307,14.786Zm-2.615,1.634a.785.785,0,0,0-.785.785V22.26a.785.785,0,1,0,1.569,0V17.2A.785.785,0,0,0,18.692,16.419Zm-5.056,0a.785.785,0,0,0-.785.785v3.138a.785.785,0,0,0,1.569,0V17.2A.785.785,0,0,0,13.637,16.419Z" transform="translate(0 0)" fill="#fff"/>
          </g>
        </g>
      </g>
    </g>
    <text id="Soul" transform="translate(879.5 540)" font-size="120" font-family="Poppins-SemiBold, Poppins" font-weight="600" letter-spacing="0.04em"><tspan x="0" y="0">Soul</tspan></text>
    <text id="Date" transform="translate(1178.493 540)" font-size="120" font-family="Poppins-SemiBold, Poppins" font-weight="600" letter-spacing="0.04em"><tspan x="0" y="0">Date</tspan></text>
  </g>
</svg>
