<?xml version="1.0" encoding="iso-8859-1"?>
<!-- Generator: Adobe Illustrator 19.0.0, SVG Export Plug-In . SVG Version: 6.00 Build 0)  -->
<svg version="1.1" id="Layer_1" xmlns="http://www.w3.org/2000/svg" xmlns:xlink="http://www.w3.org/1999/xlink" x="0px" y="0px"
	 viewBox="0 0 502 502" style="enable-background:new 0 0 502 502;" xml:space="preserve">
<g>
	<rect x="10" y="297.407" style="fill:#4EC9DC;" width="31" height="122.5"/>
	<path style="fill:#D1E2EB;" d="M63,445.593L63,445.593c-12.15,0-22-9.85-22-22V293.722c0-12.15,9.85-22,22-22l0,0
		c12.15,0,22,9.85,22,22v129.871C85,435.743,75.15,445.593,63,445.593z"/>
	<rect x="461" y="297.407" style="fill:#4EC9DC;" width="31" height="122.5"/>
	<g>
		<path style="fill:#D1E2EB;" d="M439,445.593L439,445.593c12.15,0,22-9.85,22-22V293.722c0-12.15-9.85-22-22-22l0,0
			c-12.15,0-22,9.85-22,22v129.871C417,435.743,426.85,445.593,439,445.593z"/>
		<g>
			<path d="M428.484,119.923C381.076,72.516,318.044,46.407,251,46.407c-84.644,0-163.032,42.241-209.688,112.996
				c-3.041,4.61-1.768,10.813,2.843,13.853c4.61,3.041,10.813,1.768,13.853-2.843C100.953,105.288,173.099,66.407,251,66.407
				c124.022,0,225.514,98.248,230.77,221h-11.399c-2.94-14.631-15.888-25.686-31.371-25.686c-17.645,0-32,14.355-32,32v129.871
				c0,17.645,14.355,32,32,32c15.484,0,28.431-11.055,31.371-25.686H492c5.523,0,10-4.477,10-10v-122.5
				C502,230.363,475.892,167.331,428.484,119.923z M451,423.593c0,6.617-5.383,12-12,12s-12-5.383-12-12V293.722
				c0-6.617,5.383-12,12-12s12,5.383,12,12V423.593z M482,409.907h-11v-102.5h11V409.907z"/>
			<path d="M20.748,225.318c1.117,0.401,2.258,0.592,3.381,0.592c4.1,0,7.945-2.542,9.412-6.622
				c2.326-6.475,4.977-12.922,7.88-19.164c2.329-5.008,0.156-10.955-4.852-13.284c-5.006-2.328-10.955-0.157-13.284,4.852
				c-3.155,6.786-6.037,13.795-8.566,20.834C12.851,217.723,15.55,223.45,20.748,225.318z"/>
			<path d="M63,261.722c-15.484,0-28.431,11.055-31.371,25.686H20.232c0.554-12.958,2.166-25.839,4.848-38.415
				c1.152-5.401-2.293-10.714-7.695-11.866c-5.405-1.153-10.714,2.294-11.866,7.695C1.857,261.997,0,279.689,0,297.407v122.5
				c0,5.523,4.477,10,10,10h21.629c2.94,14.631,15.888,25.686,31.371,25.686c17.645,0,32-14.355,32-32V293.722
				C95,276.077,80.645,261.722,63,261.722z M20,307.407h11v102.5H20V307.407z M51,293.722c0-6.617,5.383-12,12-12s12,5.383,12,12
				v129.871c0,6.617-5.383,12-12,12s-12-5.383-12-12V293.722z"/>
		</g>
	</g>
</g>
<g>
</g>
<g>
</g>
<g>
</g>
<g>
</g>
<g>
</g>
<g>
</g>
<g>
</g>
<g>
</g>
<g>
</g>
<g>
</g>
<g>
</g>
<g>
</g>
<g>
</g>
<g>
</g>
<g>
</g>
</svg>
