<svg xmlns="http://www.w3.org/2000/svg" xmlns:xlink="http://www.w3.org/1999/xlink" width="201.266" height="94.756" viewBox="0 0 201.266 94.756">
  <defs>
    <linearGradient id="linear-gradient" x1="1.007" y1="0.5" x2="0" y2="0.5" gradientUnits="objectBoundingBox">
      <stop offset="0" stop-color="#e3317a"/>
      <stop offset="1" stop-color="#e94c64"/>
    </linearGradient>
  </defs>
  <g id="logo" transform="translate(-67.54 -8.582)">
    <g id="Component_2_1" data-name="Component 2 – 1" transform="translate(36.697 18.712)">
      <rect id="Rectangle_3" data-name="Rectangle 3" width="9" height="15" rx="4.5" transform="translate(30.844 29.373)" fill="url(#linear-gradient)"/>
      <rect id="Rectangle_4" data-name="Rectangle 4" width="9" height="30" rx="4.5" transform="translate(46.266 22.373)" fill="url(#linear-gradient)"/>
      <rect id="Rectangle_5" data-name="Rectangle 5" width="9" height="65" rx="4.5" transform="translate(61.688 4.373)" fill="url(#linear-gradient)"/>
      <rect id="Rectangle_6" data-name="Rectangle 6" width="9" height="57" rx="4.5" transform="translate(92.532 8.373)" fill="url(#linear-gradient)"/>
      <rect id="Rectangle_7" data-name="Rectangle 7" width="9" height="85" rx="4.5" transform="translate(77.11 -5.627)" fill="url(#linear-gradient)"/>
    </g>
    <g id="Component_2_1-2" data-name="Component 2 – 1" transform="translate(198.118 13.085)">
      <rect id="Rectangle_3-2" data-name="Rectangle 3" width="9" height="15" rx="4.5" transform="translate(61.688 35)" fill="url(#linear-gradient)"/>
      <rect id="Rectangle_4-2" data-name="Rectangle 4" width="9" height="30" rx="4.5" transform="translate(46.266 28)" fill="url(#linear-gradient)"/>
      <rect id="Rectangle_5-2" data-name="Rectangle 5" width="9" height="65" rx="4.5" transform="translate(30.844 10)" fill="url(#linear-gradient)"/>
      <rect id="Rectangle_6-2" data-name="Rectangle 6" width="9" height="57" rx="4.5" transform="translate(0 14)" fill="url(#linear-gradient)"/>
      <rect id="Rectangle_7-2" data-name="Rectangle 7" width="9" height="85" rx="4.5" transform="translate(15.422 0)" fill="url(#linear-gradient)"/>
    </g>
    <g id="Group_2" data-name="Group 2" transform="translate(167.362 5.824)">
      <g id="Component_1_1" data-name="Component 1 – 1" transform="translate(-16.48 54.895) rotate(-94)">
        <path id="iconmonstr-drop-6" d="M16.164,0C-.211,8.992,0,16.837,0,24.324S8.6,41.061,16.164,41.061A13.624,13.624,0,0,0,29.85,27.5C29.85,20.016,20.5,14.677,16.164,0ZM13.858,10.942C14.656,12.181,14.97,16.094,13.858,10.942Z" transform="matrix(-0.695, 0.719, -0.719, -0.695, 50.269, 28.538)" fill="url(#linear-gradient)"/>
      </g>
      <g id="Component_1_2" data-name="Component 1 – 2" transform="matrix(-0.052, 0.999, -0.999, -0.052, 20.583, 48.183)">
        <path id="iconmonstr-drop-6-2" data-name="iconmonstr-drop-6" d="M15.637,0C-.5,8.629-.123,16.471.039,23.95s8.94,16.906,16.485,17.07A12.91,12.91,0,0,0,29.884,27.766C29.722,20.291,20.278,14.756,15.637,0ZM13.573,10.881C14.4,12.137,14.794,16.052,13.573,10.881Z" transform="matrix(-0.695, 0.719, -0.719, -0.695, 50.853, 27.745)" fill="url(#linear-gradient)"/>
      </g>
    </g>
  </g>
</svg>
