<svg id="new_logo" data-name="new logo" xmlns="http://www.w3.org/2000/svg" width="105.031" height="106.8" viewBox="0 0 105.031 106.8">
  <g id="Group_42" data-name="Group 42" transform="translate(105.031 106.8) rotate(180)">
    <g id="Group_44" data-name="Group 44" transform="translate(0 0)">
      <g id="Group_40" data-name="Group 40" transform="translate(24.711 0)">
        <path id="Path_24" data-name="Path 24" d="M53.546,106.8a53.4,53.4,0,1,1,0-106.8,26.7,26.7,0,1,1,0,53.4,26.7,26.7,0,1,0,0,53.4" transform="translate(80.319 106.8) rotate(180)" fill="#ec5873"/>
      </g>
      <path id="Path_23" data-name="Path 23" d="M53.4,106.8A53.4,53.4,0,1,1,53.4,0a26.7,26.7,0,0,1,0,53.4,26.7,26.7,0,0,0,0,53.4" transform="translate(0 0)" fill="#fff"/>
    </g>
  </g>
  <g id="Component_4_1" data-name="Component 4 – 1" transform="translate(51.515 92.212) rotate(180)">
    <g id="Group_28" data-name="Group 28" transform="translate(20 19.23) rotate(180)">
      <path id="Subtraction_2" data-name="Subtraction 2" d="M10,19.23h0c-.012-.009-1.227-.887-2.765-2.225A33.915,33.915,0,0,1,2.3,11.812,11.725,11.725,0,0,1,0,5.433,5.436,5.436,0,0,1,5.385,0h.048A5.4,5.4,0,0,1,8.068.691,5.566,5.566,0,0,1,10,2.5,5.568,5.568,0,0,1,11.932.691,5.4,5.4,0,0,1,14.567,0h.048A5.435,5.435,0,0,1,20,5.433a11.723,11.723,0,0,1-2.3,6.38,33.907,33.907,0,0,1-4.936,5.193C11.227,18.343,10.012,19.222,10,19.23ZM11.918,6.248a.393.393,0,0,0-.392.392V12.59a.392.392,0,0,0,.785,0V6.641A.393.393,0,0,0,11.918,6.248Zm-3.836.588a.393.393,0,0,0-.392.392v4.576a.392.392,0,1,0,.784,0V7.229A.393.393,0,0,0,8.082,6.837Zm5.1,2.158a.393.393,0,0,0-.392.392v2.179a.392.392,0,1,0,.785,0V9.387A.393.393,0,0,0,13.182,8.995Zm-2.528-1.6a.393.393,0,0,0-.392.392v3.781a.392.392,0,0,0,.785,0V7.785A.393.393,0,0,0,10.654,7.393ZM9.346,8.21a.393.393,0,0,0-.392.392V11.13a.392.392,0,1,0,.785,0V8.6A.393.393,0,0,0,9.346,8.21Zm-2.528,0a.393.393,0,0,0-.392.392v1.569a.392.392,0,1,0,.785,0V8.6A.393.393,0,0,0,6.818,8.21Z" transform="translate(0 0)" fill="#ec5873"/>
    </g>
  </g>
  <g id="Component_4_2" data-name="Component 4 – 2" transform="translate(71.515 35.924) rotate(180)">
    <g id="Group_28-2" data-name="Group 28" transform="translate(20 19.231) rotate(180)">
      <path id="Subtraction_2-2" data-name="Subtraction 2" d="M10,19.231h0c-.012-.009-1.227-.887-2.765-2.225A33.913,33.913,0,0,1,2.3,11.813,11.725,11.725,0,0,1,0,5.433,5.436,5.436,0,0,1,5.385,0h.048A5.4,5.4,0,0,1,8.068.691,5.565,5.565,0,0,1,10,2.5,5.568,5.568,0,0,1,11.932.691,5.4,5.4,0,0,1,14.567,0h.048A5.435,5.435,0,0,1,20,5.433a11.724,11.724,0,0,1-2.3,6.38,33.91,33.91,0,0,1-4.936,5.193C11.227,18.343,10.012,19.222,10,19.23ZM11.918,6.248a.393.393,0,0,0-.392.392V12.59a.392.392,0,0,0,.785,0V6.641A.393.393,0,0,0,11.918,6.248Zm-3.836.588a.393.393,0,0,0-.392.392v4.576a.392.392,0,1,0,.784,0V7.229A.393.393,0,0,0,8.082,6.837Zm5.1,2.158a.393.393,0,0,0-.392.392v2.179a.392.392,0,1,0,.785,0V9.387A.393.393,0,0,0,13.182,8.995Zm-2.528-1.6a.393.393,0,0,0-.392.392v3.781a.392.392,0,0,0,.785,0V7.785A.393.393,0,0,0,10.654,7.393ZM9.346,8.21a.393.393,0,0,0-.392.392V11.13a.392.392,0,1,0,.785,0V8.6A.393.393,0,0,0,9.346,8.21Zm-2.528,0a.393.393,0,0,0-.392.392v1.569a.392.392,0,0,0,.785,0V8.6A.393.393,0,0,0,6.818,8.21Z" transform="translate(0 0)" fill="#fff"/>
    </g>
  </g>
</svg>
